<svg width="25" height="22" viewBox="0 0 25 22" fill="none" xmlns="http://www.w3.org/2000/svg">
<path d="M17.4613 14.821L18.8502 13.4462C19.0673 13.2314 19.4449 13.3817 19.4449 13.6911V19.9378C19.4449 21.0763 18.5117 22 17.3615 22H2.08338C0.93318 22 0 21.0763 0 19.9378V4.81502C0 3.67651 0.93318 2.75282 2.08338 2.75282H13.9543C14.2625 2.75282 14.4187 3.1223 14.2017 3.3414L12.8128 4.7162C12.7477 4.78065 12.6609 4.81502 12.5654 4.81502H2.08338V19.9378H17.3615V15.0616C17.3615 14.9713 17.3962 14.8854 17.4613 14.821ZM24.2583 6.15115L12.8605 17.4331L8.93682 17.8627C7.79965 17.9873 6.83174 17.0378 6.95762 15.9036L7.39165 12.0198L18.7895 0.73788C19.7834 -0.24596 21.3893 -0.24596 22.379 0.73788L24.254 2.59386C25.2479 3.5777 25.2479 5.17161 24.2583 6.15115ZM19.97 7.47869L17.4483 4.98257L9.38388 12.9693L9.06704 15.7747L11.9013 15.4611L19.97 7.47869ZM22.7826 4.05458L20.9076 2.1986C20.7296 2.02246 20.4388 2.02246 20.2652 2.1986L18.924 3.52614L21.4458 6.02226L22.787 4.69472C22.9606 4.51428 22.9606 4.23073 22.7826 4.05458Z" fill="white"/>
</svg>
