<svg width="19" height="23" viewBox="0 0 19 23" fill="none" xmlns="http://www.w3.org/2000/svg">
<path d="M18.0417 14.8664C17.3211 14.1124 16.5765 13.3326 16.5765 9.65173C16.5765 5.92205 13.9913 2.82029 10.6192 2.25032C10.7745 2.01122 10.8575 1.72773 10.8572 1.4375C10.8572 0.643596 10.2495 0 9.50001 0C8.75048 0 8.14287 0.643596 8.14287 1.4375C8.14248 1.72774 8.22545 2.01124 8.38075 2.25036C5.00876 2.82033 2.42348 5.9221 2.42348 9.65178C2.42348 13.3324 1.67913 14.1122 0.958491 14.8662C-1.08129 17.0003 0.412496 20.125 2.83809 20.125H6.78572C6.78572 21.7128 8.00096 23 9.50001 23C10.9991 23 12.2143 21.7128 12.2143 20.125H16.1619C18.5874 20.125 20.0813 16.9992 18.0417 14.8664ZM9.50001 21.2031C8.93875 21.2031 8.48215 20.7195 8.48215 20.125H10.5179C10.5179 20.7195 10.0613 21.2031 9.50001 21.2031ZM16.1624 17.9688H2.83729C2.1264 17.9688 1.77129 17.0528 2.27178 16.5227C3.48409 15.2386 4.4592 14.0194 4.4592 9.65178C4.4592 6.70769 6.7205 4.3125 9.50001 4.3125C12.2795 4.3125 14.5408 6.70769 14.5408 9.65178C14.5408 14.0384 15.5256 15.2479 16.7279 16.5227C17.2305 17.0551 16.8703 17.9688 16.1624 17.9688Z" fill="white"/>
</svg>
